<svg id="SvgjsSvg1001" width="288" height="288" xmlns="http://www.w3.org/2000/svg" version="1.1" xmlns:xlink="http://www.w3.org/1999/xlink" xmlns:svgjs="http://svgjs.com/svgjs"><defs id="SvgjsDefs1002"></defs><g id="SvgjsG1008" transform="matrix(0.9167,0,0,0.9167,11.995200000000011,11.995200000000011)"><svg xmlns="http://www.w3.org/2000/svg" enable-background="new 0 0 26 26" version="1" viewBox="0 0 26 26" width="288" height="288"><path d="M 7 0 C 3.1545455 0 0 3.1545455 0 7 L 0 19 C 0 22.845455 3.1545455 26 7 26 L 19 26 C 22.845455 26 26 22.845455 26 19 L 26 7 C 26 3.1545455 22.845455 0 19 0 L 7 0 z M 7 2 L 19 2 C 21.754545 2 24 4.2454545 24 7 L 24 19 C 24 21.754545 21.754545 24 19 24 L 7 24 C 4.2454545 24 2 21.754545 2 19 L 2 7 C 2 6.8278409 2.0141313 6.6677579 2.03125 6.5 C 2.2880304 3.9836314 4.4176136 2 7 2 z M 5.8125 8.8125 L 5.8125 17 L 7.09375 17 L 7.09375 15 L 7.40625 14.40625 L 8.40625 17 L 9.8125 17 L 8.1875 13.59375 L 9.6875 11.1875 L 8.3125 11.1875 L 7.40625 13.09375 C 7.30625 13.29375 7.19375 13.5125 7.09375 13.8125 L 7.09375 8.8125 L 5.8125 8.8125 z M 18.90625 8.8125 L 18.90625 17.09375 L 20.1875 17.09375 L 20.1875 8.8125 L 18.90625 8.8125 z M 12.5 11.09375 C 11 11.09375 10 12.29375 10 14.09375 C 10 16.09375 10.9125 17.09375 12.3125 17.09375 C 12.7125 17.09375 13.1125 17.00625 13.3125 16.90625 L 13.09375 16 C 12.89375 16.1 12.7 16.09375 12.5 16.09375 C 11.7 16.09375 11.1875 15.3875 11.1875 14.1875 C 11.1875 13.0875 11.7 12.1875 12.5 12.1875 C 12.8 12.1875 12.99375 12.3125 13.09375 12.3125 L 13.3125 11.3125 C 13.2125 11.2125 12.8 11.09375 12.5 11.09375 z M 15.8125 11.09375 C 15.1125 11.09375 14.4875 11.3 14.1875 11.5 L 14.40625 12.40625 C 14.70625 12.20625 15.1 12.09375 15.5 12.09375 C 16.2 12.09375 16.40625 12.49375 16.40625 13.09375 L 16.40625 13.3125 C 15.10625 13.3125 13.8125 13.90625 13.8125 15.40625 C 13.8125 16.40625 14.5125 17.09375 15.3125 17.09375 C 15.8125 17.09375 16.2 16.80625 16.5 16.40625 L 16.59375 17 L 17.8125 17 C 17.7125 16.6 17.6875 16.1875 17.6875 15.6875 L 17.6875 13.40625 C 17.6875 12.10625 17.3125 11.09375 15.8125 11.09375 z M 16.3125 14.09375 L 16.3125 15.5 C 16.2125 16 15.89375 16.1875 15.59375 16.1875 C 15.29375 16.1875 15 16.0125 15 15.3125 C 15 14.2125 16.0125 14.09375 16.3125 14.09375 z" enable-background="accumulate" font-family="Bitstream Vera Sans" overflow="visible" style="text-indent:0;text-align:start;line-height:normal;text-transform:none;block-progression:tb;-inkscape-font-specification:Bitstream Vera Sans" fill="#ffffff" class="color000 svgShape"></path></svg></g></svg>